<?xml version="1.0" standalone="no"?>
<!DOCTYPE svg PUBLIC "-//W3C//DTD SVG 20010904//EN"
 "http://www.w3.org/TR/2001/REC-SVG-20010904/DTD/svg10.dtd">
<svg version="1.0" xmlns="http://www.w3.org/2000/svg"
 width="50.000000pt" height="20.000000pt" viewBox="0 0 353.000000 298.000000"
 preserveAspectRatio="xMidYMid meet">

<g transform="translate(0.000000,298.000000) scale(0.100000,-0.100000)"
fill="#800080" stroke="none">
<path d="M275 2970 c-82 -13 -184 -47 -231 -76 -22 -14 -30 -23 -19 -20 139
34 355 39 505 11 52 -9 147 -34 211 -55 119 -39 359 -147 359 -161 0 -5 -22
-24 -50 -42 -204 -138 -389 -360 -485 -583 -139 -323 -151 -706 -34 -1041 172
-488 597 -867 1086 -968 316 -65 689 -22 948 108 139 69 300 196 394 308 250
299 371 665 340 1026 -9 104 -9 106 13 121 50 33 134 130 160 183 36 75 47
128 48 224 0 386 -354 739 -873 871 -294 74 -682 84 -980 23 -97 -19 -230 -64
-340 -113 l-59 -27 -131 55 c-158 65 -298 109 -433 136 -114 23 -340 33 -429
20z m1960 -270 c375 -36 736 -189 947 -401 165 -167 213 -377 111 -490 -19
-21 -39 -39 -45 -39 -5 0 -22 30 -38 66 -106 235 -299 422 -574 554 -212 102
-370 108 -428 16 -27 -43 -20 -150 15 -228 l25 -57 -106 83 c-133 104 -325
238 -454 318 -54 34 -98 64 -98 67 0 10 130 58 221 82 71 18 128 26 294 38 11
0 70 -4 130 -9z m-688 -324 c76 -57 244 -191 373 -297 407 -335 524 -418 714
-514 l120 -60 20 -60 c14 -45 19 -91 20 -185 1 -110 -2 -131 -22 -175 -79
-172 -292 -225 -496 -123 -87 44 -152 115 -226 248 -106 189 -189 256 -281
230 -60 -18 -73 -53 -94 -270 -23 -225 -49 -313 -112 -372 -38 -37 -73 -48
-147 -48 -226 0 -442 214 -521 516 -91 350 26 746 309 1042 75 79 182 172 198
172 3 0 69 -47 145 -104z"/>
</g>
</svg>
