<?xml version="1.0" standalone="no"?>
<!DOCTYPE svg PUBLIC "-//W3C//DTD SVG 20010904//EN"
 "http://www.w3.org/TR/2001/REC-SVG-20010904/DTD/svg10.dtd">
<svg version="1.0" xmlns="http://www.w3.org/2000/svg"
 width="178.000000pt" height="31.000000pt" viewBox="0 0 178.000000 31.000000"
 preserveAspectRatio="xMidYMid meet">
<metadata>
Created by potrace 1.10, written by Peter Selinger 2001-2011
</metadata>
<g transform="translate(0.000000,759.000000) scale(0.100000,-0.100000)"
fill="#050321" stroke="none">
<path d="M814 7581 c8 -12 -10 -18 -80 -26 -81 -9 -253 -44 -275 -55 -10 -6
-28 -10 -41 -10 -13 0 -28 -4 -34 -8 -5 -5 -40 -19 -79 -31 -38 -12 -83 -29
-100 -36 -16 -8 -37 -16 -45 -19 -8 -4 -28 -15 -45 -26 -16 -11 -36 -23 -42
-26 -27 -13 -13 -26 20 -19 17 4 55 11 82 15 28 5 79 13 115 19 283 47 707 47
950 0 30 -6 75 -13 100 -15 25 -3 61 -9 80 -14 19 -5 73 -19 120 -30 47 -11
108 -26 135 -34 28 -8 77 -22 110 -32 81 -23 164 -50 200 -65 17 -6 39 -15 50
-19 11 -4 52 -20 90 -35 39 -15 91 -36 116 -45 91 -34 428 -197 512 -248 l58
-35 -22 -24 c-13 -12 -26 -23 -31 -23 -5 0 -38 -21 -73 -47 -35 -27 -90 -66
-121 -88 -32 -22 -79 -60 -106 -84 -27 -25 -61 -52 -76 -61 -39 -24 -250 -229
-356 -346 -106 -117 -165 -189 -221 -268 -22 -32 -59 -83 -81 -114 -23 -31
-52 -77 -66 -102 -13 -25 -35 -63 -49 -85 -41 -67 -47 -77 -88 -160 -68 -138
-121 -255 -121 -266 0 -6 -6 -23 -14 -37 -25 -49 -46 -102 -46 -117 0 -8 -6
-29 -14 -47 -8 -18 -22 -60 -31 -93 -9 -33 -23 -80 -31 -105 -8 -25 -14 -54
-14 -65 0 -10 -6 -37 -14 -60 -55 -159 -114 -671 -103 -895 14 -269 38 -490
72 -640 8 -36 18 -84 21 -108 4 -23 11 -45 15 -48 5 -3 9 -15 9 -28 0 -12 6
-42 14 -67 13 -42 30 -99 63 -214 8 -27 21 -63 29 -78 8 -16 14 -35 14 -44 0
-8 6 -27 14 -41 8 -15 24 -52 36 -82 12 -30 40 -92 61 -138 22 -46 39 -88 39
-93 0 -5 12 -28 27 -52 31 -47 34 -53 88 -157 41 -78 220 -351 274 -417 17
-21 61 -76 98 -123 142 -180 434 -459 675 -646 62 -48 307 -210 340 -225 13
-5 64 -32 113 -59 81 -44 185 -96 270 -135 28 -12 149 -59 238 -91 20 -8 54
-20 75 -28 57 -20 215 -65 277 -77 127 -26 153 -31 181 -40 17 -5 62 -13 100
-19 38 -5 101 -14 139 -19 307 -44 646 -43 970 1 44 5 107 14 140 18 56 6 79
11 210 40 28 6 70 15 95 19 25 4 65 13 90 20 25 7 72 19 105 28 67 17 126 38
168 59 16 8 35 14 44 14 8 0 27 6 41 14 15 8 47 22 72 31 104 41 375 180 411
211 8 8 19 14 24 14 8 0 157 99 165 110 3 4 19 16 36 26 109 66 382 319 546
504 81 93 228 284 228 298 0 5 11 19 25 32 13 13 36 46 51 74 15 28 43 76 63
106 20 31 42 64 48 75 23 37 161 319 183 375 69 172 98 249 107 285 2 11 8 29
13 40 8 20 38 122 61 205 15 56 38 177 49 252 4 31 11 61 14 67 8 12 21 156
36 381 11 170 -9 537 -35 656 -7 29 -4 34 41 65 182 123 340 300 421 469 47
100 63 139 63 158 0 10 4 22 9 27 16 17 49 177 57 273 5 68 10 92 20 92 8 0
14 7 14 15 0 8 -5 14 -12 13 -9 -2 -16 36 -25 127 -14 154 -55 322 -109 453
-8 18 -14 37 -14 42 0 23 -116 247 -160 310 -9 14 -19 30 -21 36 -5 13 -77
113 -143 197 -53 69 -218 242 -282 297 -117 100 -155 131 -243 194 -53 37
-103 71 -111 74 -8 3 -28 15 -45 28 -73 54 -338 191 -470 244 -44 17 -93 37
-110 45 -16 7 -50 20 -75 30 -25 9 -56 22 -70 27 -13 5 -51 18 -85 29 -33 11
-76 25 -95 31 -19 6 -53 15 -75 19 -22 4 -53 11 -70 17 -34 12 -101 29 -160
42 -22 5 -58 13 -80 18 -119 30 -294 59 -435 72 -58 6 -129 15 -158 20 -86 15
-714 23 -962 11 -298 -14 -466 -32 -680 -73 -30 -5 -76 -14 -103 -18 -26 -5
-62 -13 -80 -19 -17 -6 -59 -18 -92 -27 -33 -9 -99 -30 -147 -45 -48 -16 -94
-29 -103 -29 -9 0 -29 -6 -43 -14 -15 -8 -47 -21 -72 -31 -25 -9 -58 -23 -75
-30 -16 -7 -66 -27 -110 -45 -44 -18 -122 -53 -174 -77 l-94 -44 -66 31 c-36
18 -79 37 -96 44 -16 7 -73 32 -125 54 -216 92 -264 112 -276 112 -13 0 -70
23 -109 43 -11 6 -36 14 -55 18 -19 4 -89 25 -155 48 -66 22 -147 47 -180 56
-33 9 -81 23 -106 31 -26 8 -59 14 -73 14 -15 0 -36 5 -46 10 -10 6 -45 15
-77 20 -32 5 -87 14 -123 20 -36 6 -78 15 -95 20 -16 5 -75 14 -129 20 -55 6
-111 13 -125 17 -23 6 -24 7 -6 14 11 4 -112 8 -273 8 -170 1 -291 -3 -288 -8z
m4891 -711 c55 -6 136 -16 180 -22 44 -6 107 -13 140 -17 33 -3 65 -10 72 -14
6 -4 37 -11 70 -17 32 -5 85 -16 118 -24 33 -8 80 -20 105 -26 25 -7 68 -18
96 -26 28 -8 60 -14 70 -14 11 0 24 -4 30 -10 5 -5 30 -14 54 -19 42 -8 87
-23 135 -42 11 -5 63 -24 115 -44 212 -81 191 -71 395 -171 88 -43 174 -88
190 -100 17 -13 41 -27 55 -33 27 -12 33 -16 128 -78 35 -24 66 -43 68 -43 3
0 33 -21 66 -47 34 -27 86 -67 117 -91 72 -54 259 -240 321 -317 110 -138 199
-296 234 -410 10 -33 25 -82 34 -110 12 -37 16 -90 16 -205 0 -134 -3 -163
-22 -217 -40 -114 -87 -181 -169 -243 -29 -22 -58 -40 -65 -40 -13 0 -78 129
-78 154 0 18 -108 225 -159 306 -23 36 -44 72 -48 80 -16 36 -193 262 -257
328 -126 131 -295 291 -308 292 -4 0 -22 13 -40 29 -66 58 -326 225 -463 298
-22 11 -56 30 -75 42 -19 11 -44 25 -55 30 -11 5 -59 27 -108 50 -48 22 -92
41 -98 41 -6 0 -23 6 -37 14 -15 8 -47 22 -72 31 -25 10 -59 24 -77 31 -17 8
-41 14 -53 14 -12 0 -30 5 -40 10 -21 11 -182 39 -275 47 -57 5 -175 -14 -235
-38 -31 -13 -104 -61 -109 -72 -2 -5 -16 -24 -32 -42 -49 -56 -71 -143 -66
-260 5 -100 18 -174 42 -230 7 -16 31 -72 55 -123 23 -52 39 -96 37 -99 -6 -6
-84 33 -92 47 -6 10 -139 114 -208 163 -21 15 -53 41 -71 57 -17 17 -36 30
-42 30 -5 0 -23 14 -39 30 -16 17 -33 30 -38 30 -6 0 -30 17 -55 37 -25 21
-62 49 -81 62 -54 37 -111 78 -156 110 -42 31 -315 219 -342 236 -9 6 -73 48
-142 94 -69 46 -135 87 -146 92 -11 5 -32 17 -46 27 -53 35 -170 107 -190 117
-11 5 -18 17 -17 25 3 15 161 99 186 100 8 0 28 6 45 13 54 23 101 39 138 46
19 4 41 11 47 15 24 15 199 59 299 76 29 4 67 13 85 18 18 6 80 13 138 17 58
4 152 11 210 15 130 10 382 5 515 -10z m-2079 -600 c29 -22 57 -40 61 -40 4 0
23 -14 42 -30 18 -17 37 -30 42 -30 4 0 14 -6 21 -13 7 -7 78 -62 158 -122 80
-59 147 -111 150 -114 3 -3 27 -22 53 -41 26 -19 67 -52 91 -73 24 -20 60 -49
80 -62 20 -14 55 -41 77 -62 21 -20 50 -44 63 -52 27 -18 203 -160 226 -182 8
-8 59 -50 113 -94 93 -76 126 -103 353 -290 232 -191 280 -229 477 -383 130
-100 168 -129 307 -233 135 -100 191 -139 275 -193 50 -32 102 -67 117 -77 15
-11 30 -19 33 -19 3 0 32 -17 63 -38 63 -43 67 -45 219 -121 172 -86 296 -141
317 -141 44 0 97 -148 151 -423 23 -117 21 -398 -4 -513 -42 -193 -112 -321
-234 -426 -124 -107 -211 -145 -415 -183 -110 -20 -195 -19 -322 5 -205 38
-296 74 -463 184 -134 89 -296 261 -367 392 -12 22 -25 46 -30 54 -40 67 -128
218 -133 230 -63 141 -229 353 -327 418 -180 121 -388 93 -458 -60 -31 -67
-52 -140 -52 -176 0 -18 -4 -41 -9 -51 -9 -17 -18 -84 -41 -336 -35 -386 -67
-576 -117 -692 -7 -17 -13 -36 -13 -41 0 -17 -97 -175 -127 -207 -24 -26 -103
-82 -153 -111 -32 -18 -111 -27 -235 -28 -143 0 -224 9 -272 30 -17 8 -35 14
-40 14 -20 0 -195 83 -265 125 -97 58 -240 186 -358 320 -107 121 -264 388
-311 527 -11 33 -24 67 -28 76 -19 37 -41 99 -47 135 -3 20 -10 40 -15 43 -5
3 -9 16 -9 30 0 14 -5 35 -11 46 -7 12 -15 47 -19 77 -5 31 -13 85 -19 121
-17 106 -31 290 -31 400 0 163 30 440 62 565 5 22 13 58 18 80 20 92 42 163
76 243 8 18 14 40 14 50 0 9 7 26 15 36 8 11 15 26 15 34 0 20 59 144 179 380
25 48 199 309 243 364 24 29 55 69 69 88 27 36 33 42 123 140 28 30 71 78 96
106 25 27 83 83 130 124 47 41 101 89 120 106 74 67 194 153 214 154 5 0 33
-18 62 -40z"/>
</g>
</svg>
